<svg data-v-0dd9719b="" version="1.0" xmlns="http://www.w3.org/2000/svg" xmlns:xlink="http://www.w3.org/1999/xlink" width="100%" height="100%" viewBox="0 0 340.000000 250.000000" preserveAspectRatio="xMidYMid meet" color-interpolation-filters="sRGB" style="margin: auto;"> <rect data-v-0dd9719b="" x="0" y="0" width="100%" height="100%" fill="#ffffff" fill-opacity="1" class="background"></rect> <rect data-v-0dd9719b="" x="0" y="0" width="100%" height="100%" fill="url(#watermark)" fill-opacity="1" class="watermarklayer"></rect> <g data-v-0dd9719b="" class="iconmbgsvg" transform="translate(92.5,88.75)"><g fill="#333333" hollow-target="textRect"><g transform="translate(82.5,0)" mask="url(#8775de2e-66fe-4f97-8537-40a507b8822a)"><g><rect fill="#333333" fill-opacity="0" stroke-width="2" x="0" y="0" width="72.5" height="72.5" class="image-rect"></rect> <svg x="0" y="0" width="72.5" height="72.5" filtersec="colorsb9749016212" class="image-svg-svg primary" style="overflow: visible;"><svg fill="#fc4349" xmlns:x="http://ns.adobe.com/Extensibility/1.0/" xmlns:i="http://ns.adobe.com/AdobeIllustrator/10.0/" xmlns:graph="http://ns.adobe.com/Graphs/1.0/" xmlns="http://www.w3.org/2000/svg" xmlns:xlink="http://www.w3.org/1999/xlink" version="1.1" x="0px" y="0px" viewBox="5 5 90 90" style="enable-background:new 0 0 100 100;" xml:space="preserve"><g><g i:extraneous="self"><path d="M50,5L5,50l45,45l45-45L50,5z"></path></g></g></svg></svg> <!----></g></g> <g transform="translate(0,22.049997329711914)"><g data-gra="path-name" fill-rule="" class="tp-name"><g transform="scale(1)"><g><path d="M16.75-32.15L22.1-32.15 23.8-42.85 31.4-41.65 29.9-32.15 36.8-32.15 31.75-37.95 36.7-42.3 42.4-35.8 38.25-32.15 43.3-32.15 43.3-23.4 28.55-23.4 23.75 7.2 16.1 6 20.75-23.4 16.75-23.4 16.75-32.15ZM7.45 7.1L7.45-14.9 0.4-17.7 10.5-43.2 18.05-40.2 14.15-30.45 14.15 7.1 7.45 7.1ZM39.6-9L45.9-8 43.65 6.45 28.95 6.45 28.95-20.2 35.65-20.2 35.65-1.45 38.45-1.45 39.6-9ZM74.45-17.05L53.95 1.45 47.75-5.4 69.95-25.4 51.4-25.4 51.4-34.7 74.45-34.7 74.45-42.7 82.5-42.7 82.5-34.7 91.05-34.7 91.05-25.4 82.5-25.4 82.5 6.7 68.05 6.7 68.05-2.65 74.45-2.65 74.45-17.05ZM97 6.95L97-30.25 102.45-30.25 95.4-37.3 101.1-43 107.7-36.4 107.7-41.7 135.9-41.7 135.9 7 125.5 7 125.5 4.6 106.4 4.6 106.4-10.9 103.75-14.75 103.75 6.95 97 6.95ZM103.75-23.9L103.75-15.75 109.95-20.05 107.75-21.45 107.05-20.7 103.75-23.9ZM109.85-12.1L122.6-12.1 115.9-16.3 109.85-12.1ZM113-25.7L117.05-23.15 120.75-25.7 113-25.7ZM112.5-2.4L120.05-2.4 120.05-5.6 112.5-5.6 112.5-2.4ZM126.2-0.5L129.05-0.5 129.05-15.6 126.2-11.1 126.2-0.5ZM129.05-15.65L129.05-33.75 112.65-33.75 115.65-30.85 126.85-30.85 126.85-23.85 121.65-20.3 129.05-15.65ZM107.7-34.5L103.45-30.25 103.75-30.25 103.75-25.1 111.95-33.75 107.7-33.75 107.7-34.5Z" transform="translate(-0.4000000059604645, 43.20000076293945)"></path></g> <!----> <!----> <!----> <!----> <!----> <!----> <!----></g></g> <!----></g></g></g><mask id="8775de2e-66fe-4f97-8537-40a507b8822a"><g fill="white"><g><rect fill-opacity="1" stroke-width="2" x="0" y="0" width="72.5" height="72.5" class="image-rect"></rect> <svg x="0" y="0" width="72.5" height="72.5" filtersec="colorsb9749016212" class="image-svg-svg primary" style="overflow: visible;"><svg xmlns:x="http://ns.adobe.com/Extensibility/1.0/" xmlns:i="http://ns.adobe.com/AdobeIllustrator/10.0/" xmlns:graph="http://ns.adobe.com/Graphs/1.0/" xmlns="http://www.w3.org/2000/svg" xmlns:xlink="http://www.w3.org/1999/xlink" version="1.1" x="0px" y="0px" viewBox="5 5 90 90" style="enable-background:new 0 0 100 100;" xml:space="preserve"><g><g i:extraneous="self"><path d="M50,5L5,50l45,45l45-45L50,5z"></path></g></g></svg></svg> </g></g> <g transform="translate(-82.5,22.049997329711914)"><rect fill="black" fill-opacity="1" x="-3.5" y="-3.5" width="142.5" height="57.40000534057617"></rect><rect fill="black" fill-opacity="1" x="-3.5" y="-3.5"></rect></g><g transform="translate(-82.5,22.049997329711914)" fill="black"><g data-gra="path-name" fill-rule="" class="tp-name"><g transform="scale(1)"><g><path d="M16.75-32.15L22.1-32.15 23.8-42.85 31.4-41.65 29.9-32.15 36.8-32.15 31.75-37.95 36.7-42.3 42.4-35.8 38.25-32.15 43.3-32.15 43.3-23.4 28.55-23.4 23.75 7.2 16.1 6 20.75-23.4 16.75-23.4 16.75-32.15ZM7.45 7.1L7.45-14.9 0.4-17.7 10.5-43.2 18.05-40.2 14.15-30.45 14.15 7.1 7.45 7.1ZM39.6-9L45.9-8 43.65 6.45 28.95 6.45 28.95-20.2 35.65-20.2 35.65-1.45 38.45-1.45 39.6-9ZM74.45-17.05L53.95 1.45 47.75-5.4 69.95-25.4 51.4-25.4 51.4-34.7 74.45-34.7 74.45-42.7 82.5-42.7 82.5-34.7 91.05-34.7 91.05-25.4 82.5-25.4 82.5 6.7 68.05 6.7 68.05-2.65 74.45-2.65 74.45-17.05ZM97 6.95L97-30.25 102.45-30.25 95.4-37.3 101.1-43 107.7-36.4 107.7-41.7 135.9-41.7 135.9 7 125.5 7 125.5 4.6 106.4 4.6 106.4-10.9 103.75-14.75 103.75 6.95 97 6.95ZM103.75-23.9L103.75-15.75 109.95-20.05 107.75-21.45 107.05-20.7 103.75-23.9ZM109.85-12.1L122.6-12.1 115.9-16.3 109.85-12.1ZM113-25.7L117.05-23.15 120.75-25.7 113-25.7ZM112.5-2.4L120.05-2.4 120.05-5.6 112.5-5.6 112.5-2.4ZM126.2-0.5L129.05-0.5 129.05-15.6 126.2-11.1 126.2-0.5ZM129.05-15.65L129.05-33.75 112.65-33.75 115.65-30.85 126.85-30.85 126.85-23.85 121.65-20.3 129.05-15.65ZM107.7-34.5L103.45-30.25 103.75-30.25 103.75-25.1 111.95-33.75 107.7-33.75 107.7-34.5Z" transform="translate(-0.4000000059604645, 43.20000076293945)"></path></g>       </g></g> </g></mask><defs v-gra="od"></defs></svg>